<svg width="25" height="19" viewBox="0 0 25 19" fill="none" xmlns="http://www.w3.org/2000/svg">
<path d="M2.79688 13.669V0.45776C6.99216 -0.458457 11.6536 1.91664 11.6536 4.66999V17.9611C10.6369 16.2948 7.15667 15.8399 4.79484 15.7157C3.69179 15.6577 2.79688 14.7736 2.79688 13.669Z" fill="#AD8500"/>
<path d="M21.9087 13.4112V0.199948C17.7134 -0.71627 13.052 1.65883 13.052 4.41218V17.7033C14.0686 16.037 17.5489 15.5821 19.9107 15.4579C21.0138 15.3999 21.9087 14.5158 21.9087 13.4112Z" fill="#AD8500"/>
<path d="M1.86457 16.9614C1.39843 17.4198 1.86457 3.20898 1.86457 3.20898H0V18.795C5.31618 18.161 7.64361 18.2156 10.7213 18.795C8.05709 16.7297 2.33071 16.503 1.86457 16.9614Z" fill="#AD8500"/>
<path d="M22.841 16.5024C23.3071 16.9608 22.841 2.75 22.841 2.75H24.7056V18.336C19.3894 17.7021 17.062 17.7566 13.9843 18.336C16.6485 16.2707 22.3749 16.044 22.841 16.5024Z" fill="#AD8500"/>
</svg>
