<svg width="22" height="22" viewBox="0 0 22 22" fill="none" xmlns="http://www.w3.org/2000/svg">
<path d="M20.5 20.9996H1.5C0.947715 20.9996 0.5 20.5518 0.5 19.9996V2.46973C0.5 1.91744 0.947715 1.46973 1.5 1.46973H20.5C21.0523 1.46973 21.5 1.91744 21.5 2.46973V19.9996C21.5 20.5518 21.0523 20.9996 20.5 20.9996Z" fill="#AD8500" stroke="#FFD668"/>
<path d="M0.654663 6.71094H21.4578" stroke="#FFD668"/>
<circle cx="3" cy="9.5" r="0.5" fill="#FFD668"/>
<circle cx="8" cy="9.5" r="0.5" fill="#FFD668"/>
<circle cx="14" cy="9.5" r="0.5" fill="#FFD668"/>
<circle cx="19" cy="9.5" r="0.5" fill="#FFD668"/>
<rect x="4.12424" y="0.263642" width="0.527285" height="2.41285" fill="#AD8500" stroke="#AD8500" stroke-width="0.527285"/>
<rect x="17.2009" y="0.263642" width="0.527285" height="2.41285" fill="#AD8500" stroke="#AD8500" stroke-width="0.527285"/>
<circle cx="3" cy="13.5" r="0.5" fill="#FFD668"/>
<circle cx="3" cy="17.5" r="0.5" fill="#FFD668"/>
<circle cx="8" cy="13.5" r="0.5" fill="#FFD668"/>
<circle cx="8" cy="17.5" r="0.5" fill="#FFD668"/>
<circle cx="14" cy="13.5" r="0.5" fill="#FFD668"/>
<circle cx="19" cy="13.5" r="0.5" fill="#FFD668"/>
<circle cx="19" cy="17.5" r="0.5" fill="#FFD668"/>
<circle cx="14" cy="17.5" r="0.5" fill="#FFD668"/>
</svg>
