<svg width="21" height="21" viewBox="0 0 21 21" fill="none" xmlns="http://www.w3.org/2000/svg">
<g clip-path="url(#clip0_187_884)">
<path d="M20.8935 9.99524C20.8266 9.83386 20.7308 9.68953 20.6088 9.56751L15.3614 4.3206C14.8484 3.80759 14.0191 3.80759 13.506 4.3206C12.993 4.83361 12.993 5.66283 13.506 6.17584L16.5148 9.18439H5.24863C4.52301 9.18439 3.93647 9.77219 3.93647 10.4964C3.93647 11.2207 4.52301 11.8085 5.24863 11.8085H16.5148L13.506 14.817C12.993 15.3301 12.993 16.1593 13.506 16.6723C13.7619 16.9281 14.0978 17.0567 14.4337 17.0567C14.7696 17.0567 15.1056 16.9281 15.3614 16.6723L20.6088 11.4254C20.7308 11.3047 20.8266 11.159 20.8935 10.9976C21.026 10.6775 21.026 10.3154 20.8935 9.99524Z" fill="#9B1C1C"/>
<path d="M7.87295 18.3688H3.93647C3.21216 18.3688 2.62432 17.7797 2.62432 17.0567V3.93617C2.62432 3.21322 3.21216 2.62411 3.93647 2.62411H7.87295C8.59857 2.62411 9.18511 2.03631 9.18511 1.31206C9.18511 0.587801 8.59857 0 7.87295 0H3.93647C1.76616 0 0 1.76603 0 3.93617V17.0567C0 19.2269 1.76616 20.9929 3.93647 20.9929H7.87295C8.59857 20.9929 9.18511 20.4051 9.18511 19.6808C9.18511 18.9566 8.59857 18.3688 7.87295 18.3688Z" fill="#9B1C1C"/>
</g>
<defs>
<clipPath id="clip0_187_884">
<rect width="20.9929" height="20.9929" fill="white"/>
</clipPath>
</defs>
</svg>
