<svg width="21" height="21" viewBox="0 0 21 21" fill="none" xmlns="http://www.w3.org/2000/svg">
<path fill-rule="evenodd" clip-rule="evenodd" d="M9.02463 1.31345H11.9505C12.3914 1.30689 12.823 1.45121 13.1707 1.72281C13.521 1.99834 13.7638 2.3854 13.853 2.821L14.1088 4.04777C14.2199 4.10725 14.3293 4.16848 14.4369 4.23146L15.6768 3.82472C15.9318 3.7424 16.2012 3.71377 16.4679 3.74064C16.7345 3.76751 16.9928 3.8493 17.2263 3.98086C17.5149 4.14355 17.7577 4.3771 17.9269 4.66312L19.403 7.0983C19.6416 7.47564 19.7357 7.92654 19.6679 8.36782C19.6002 8.8091 19.3751 9.21099 19.0343 9.49936H19.0317L18.0581 10.3299V10.6684L19.0199 11.5252C19.3541 11.8088 19.5768 12.202 19.6481 12.6345C19.7195 13.067 19.6349 13.5109 19.4096 13.8869L17.9794 16.3273V16.3299C17.8092 16.6147 17.568 16.8504 17.2793 17.0139C16.9907 17.1774 16.6645 17.2632 16.3328 17.2628C16.1276 17.2639 15.9235 17.2329 15.7279 17.171L15.7214 17.1683L14.492 16.7629C14.3826 16.8276 14.2715 16.8893 14.1587 16.9479L13.9042 18.1734C13.8143 18.6092 13.5725 18.9989 13.2219 19.2729C12.8733 19.5456 12.4416 19.6901 11.9991 19.6822H9.04956C8.60795 19.6895 8.17722 19.545 7.82935 19.2729C7.47901 18.9992 7.23722 18.61 7.14708 18.1747L6.89123 16.9466C6.78045 16.888 6.67108 16.8267 6.56322 16.7629L5.32333 17.1696C5.06825 17.252 4.7989 17.2806 4.53222 17.2537C4.26554 17.2268 4.00731 17.1451 3.77379 17.0135C3.48474 16.8522 3.24313 16.6179 3.07315 16.3339L1.59578 13.8934C1.3667 13.5237 1.2752 13.0851 1.33735 12.6547C1.39949 12.2242 1.61131 11.8294 1.9356 11.5396L2.91571 10.3037L1.98021 9.4705C1.64552 9.18653 1.4227 8.79282 1.35156 8.3597C1.28041 7.92658 1.36558 7.48228 1.59184 7.10617L1.59447 7.10355L3.07315 4.66312C3.24087 4.38102 3.47871 4.1471 3.76356 3.98409C4.04842 3.82109 4.3706 3.73455 4.69879 3.73288C4.89647 3.72238 5.09153 3.74119 5.28397 3.7893L5.31283 3.79717L6.5396 4.22883C6.64719 4.16586 6.75653 4.1055 6.86762 4.04777L7.12215 2.82231C7.212 2.3865 7.45381 1.99681 7.80442 1.72281C8.15081 1.45121 8.58378 1.30689 9.02463 1.31345ZM10.5033 7.87372C9.80736 7.87372 9.13991 8.15019 8.64779 8.64231C8.15568 9.13442 7.87921 9.80188 7.87921 10.4978C7.87921 11.1938 8.15568 11.8612 8.64779 12.3534C9.13991 12.8455 9.80736 13.1219 10.5033 13.1219C11.1993 13.1219 11.8667 12.8455 12.3588 12.3534C12.851 11.8612 13.1274 11.1938 13.1274 10.4978C13.1274 9.80188 12.851 9.13442 12.3588 8.64231C11.8667 8.15019 11.1993 7.87372 10.5033 7.87372ZM6.56716 10.4978C6.56716 9.4539 6.98186 8.45272 7.72003 7.71455C8.45821 6.97637 9.45938 6.56167 10.5033 6.56167C11.5473 6.56167 12.5484 6.97637 13.2866 7.71455C14.0248 8.45272 14.4395 9.4539 14.4395 10.4978C14.4395 11.5418 14.0248 12.543 13.2866 13.2811C12.5484 14.0193 11.5473 14.434 10.5033 14.434C9.45938 14.434 8.45821 14.0193 7.72003 13.2811C6.98186 12.543 6.56716 11.5418 6.56716 10.4978Z" fill="#AD8500"/>
</svg>
