<svg width="26" height="22" viewBox="0 0 26 22" fill="none" xmlns="http://www.w3.org/2000/svg">
<path d="M7.51648 9.42871H18.5122V16.1999C18.5122 16.8479 18.1982 17.4558 17.6698 17.8309L14.1719 20.3135C13.4786 20.8055 12.5501 20.8055 11.8568 20.3135L8.35891 17.8309C7.83045 17.4558 7.51648 16.8479 7.51648 16.1999V9.42871Z" fill="#AD8500"/>
<path d="M12.3123 0.655037C12.6271 0.45275 13.0278 0.442544 13.3513 0.628575L24.4015 6.98276C25.0504 7.35592 25.0713 8.28526 24.4399 8.69102L13.6877 15.6004C13.3729 15.8027 12.9722 15.8129 12.6487 15.6269L1.59848 9.27271C0.949551 8.89956 0.928671 7.97022 1.5601 7.56446L12.3123 0.655037Z" fill="#AD8500"/>
<path d="M5.07312 9.42871L5.07312 17.2329" stroke="#AD8500"/>
<ellipse cx="5.07319" cy="17.2323" rx="1.22175" ry="1.3007" fill="#AD8500"/>
</svg>
