<svg width="21" height="21" viewBox="0 0 21 21" fill="none" xmlns="http://www.w3.org/2000/svg">
<g clip-path="url(#clip0_187_875)">
<path d="M8.98643 13.6562L8.98144 13.6445C8.88113 13.6208 8.78138 13.5948 8.68228 13.5664L8.6748 13.5639C7.72688 13.2914 6.85146 12.8114 6.11202 12.1587C5.2988 11.4413 4.67342 10.5359 4.29041 9.52137C3.9074 8.50684 3.77838 7.41402 3.91461 6.33819C4.05084 5.26236 4.44818 4.23619 5.07198 3.34915C5.69578 2.46212 6.52711 1.74115 7.49348 1.24911C8.45984 0.75707 9.5319 0.508901 10.6162 0.526241C11.7005 0.54358 12.764 0.825902 13.7142 1.34859C14.6643 1.87128 15.4722 2.61846 16.0673 3.52499C16.6624 4.43152 17.0267 5.46987 17.1285 6.5495C17.1609 6.8927 16.8792 7.17275 16.5343 7.17275C16.1903 7.17275 15.9152 6.8927 15.8754 6.55034C15.7655 5.60574 15.4082 4.70689 14.8396 3.94464C14.271 3.18239 13.5112 2.58378 12.6371 2.2093C11.763 1.83482 10.8055 1.69775 9.86139 1.81195C8.91731 1.92616 8.02011 2.28758 7.26049 2.85969C6.50087 3.4318 5.90576 4.19431 5.53531 5.07016C5.16486 5.946 5.0322 6.90412 5.15075 7.84766C5.26929 8.79121 5.63484 9.68673 6.21044 10.4437C6.78605 11.2007 7.55129 11.7923 8.42883 12.1587L8.46207 12.1728C8.62827 12.241 8.7989 12.3011 8.97396 12.3532C9.12105 11.9977 9.38685 11.7044 9.72606 11.523C10.0653 11.3417 10.4569 11.2836 10.8341 11.3587C11.2114 11.4338 11.5509 11.6374 11.7948 11.9348C12.0387 12.2322 12.1719 12.6051 12.1716 12.9897C12.172 13.3717 12.0408 13.7421 11.8001 14.0387C11.5594 14.3352 11.2239 14.5398 10.85 14.6181C10.4762 14.6963 10.0868 14.6434 9.74734 14.4682C9.40793 14.293 9.13922 14.0062 8.98643 13.6562ZM8.16707 14.7132C6.69084 14.2541 5.38191 13.3716 4.40267 12.1753C3.79581 12.2464 3.23618 12.5379 2.83007 12.9944C2.42395 13.4509 2.19963 14.0407 2.19971 14.6517V15.2458C2.19971 18.3355 5.69819 20.4686 10.5096 20.4686C15.3211 20.4686 18.8196 18.2183 18.8196 15.2458V14.6517C18.8196 13.9905 18.5569 13.3564 18.0894 12.8889C17.6219 12.4214 16.9878 12.1587 16.3266 12.1587H13.2976C13.4936 12.8152 13.4516 13.5199 13.1789 14.1484C12.9062 14.7769 12.4204 15.289 11.807 15.5944C11.1937 15.8998 10.4923 15.9788 9.82634 15.8176C9.16043 15.6564 8.57281 15.2653 8.16707 14.7132ZM14.6646 7.17275C14.6646 5.91629 14.1078 4.79029 13.2262 4.02827C12.7838 3.64665 12.2659 3.36261 11.7063 3.1947C11.1467 3.02679 10.558 2.97878 9.97858 3.05381C9.39918 3.12884 8.84211 3.32521 8.34374 3.63012C7.84538 3.93503 7.41691 4.34161 7.08633 4.82332C6.75574 5.30504 6.53046 5.85106 6.42519 6.42573C6.31992 7.00041 6.33703 7.59083 6.47541 8.15845C6.61378 8.72607 6.87031 9.25812 7.22824 9.71988C7.58617 10.1816 8.03746 10.5627 8.55265 10.8383C9.08806 10.3512 9.78583 10.0813 10.5096 10.0812C11.2337 10.0811 11.9318 10.351 12.4675 10.8383C13.1314 10.4836 13.6864 9.95524 14.0734 9.30964C14.4604 8.66404 14.6647 7.92544 14.6646 7.17275Z" fill="#AD8500"/>
</g>
<defs>
<clipPath id="clip0_187_875">
<rect width="20.9929" height="20.9929" fill="white"/>
</clipPath>
</defs>
</svg>
